<svg width="18" height="18" viewBox="0 0 18 18" fill="none" xmlns="http://www.w3.org/2000/svg">
<g clip-path="url(#clip0_20_847)">
<circle cx="9" cy="9" r="9" fill="#C5C5C5"/>
<circle cx="9" cy="8.99997" r="8.28" fill="white"/>
<path d="M13.0833 8.13089C13.8483 5.20589 11.5758 2.34839 7.05325 3.42839C7.05325 3.72089 6.80149 4.33648 7.68325 5.45339C8.69575 6.73589 11.6433 6.26339 13.0833 8.13089Z" fill="#949494"/>
<path d="M10.6533 5.36326C9.70826 4.80077 7.16576 4.79775 7.68327 5.45326C8.46263 6.44045 10.3885 6.38781 11.8908 7.16292C11.8908 7.16292 11.5983 5.92576 10.6533 5.36326Z" fill="#C5C5C5"/>
<path d="M4.47458 9.77922C3.66515 12.8741 6.06963 15.8976 10.8548 14.7548C10.8548 14.4453 11.1212 13.794 10.1882 12.6122C9.1169 11.2552 5.99821 11.7552 4.47458 9.77922Z" fill="#949494"/>
<path d="M7.04571 12.7074C8.04559 13.3026 10.7358 13.3057 10.1882 12.6122C9.36357 11.5676 7.32589 11.6233 5.73633 10.8032C5.73633 10.8032 6.04582 12.1122 7.04571 12.7074Z" fill="#C5C5C5"/>
<path d="M8.01724 9.855C10.5147 10.6425 12.6657 11.8515 12.4047 14.13C15.3514 10.6215 12.6522 8.8875 9.88474 7.9875C7.56724 7.11 5.48918 6.27344 5.87974 3.87C2.86379 7.24735 5.56474 8.8425 8.01724 9.855Z" fill="#949494"/>
<path d="M6.35226 6.03003C4.28226 9.51753 9.88476 8.91003 11.8423 12.015C13.6873 8.19003 8.28726 9.22503 6.35226 6.03003Z" fill="#C5C5C5"/>
<rect x="8.37" y="2.47498" width="1.53" height="13.05" rx="0.09" fill="#949494"/>
</g>
<defs>
<clipPath id="clip0_20_847">
<rect width="18" height="18" fill="white"/>
</clipPath>
</defs>
</svg>
