<svg width="18" height="18" viewBox="0 0 18 18" fill="none" xmlns="http://www.w3.org/2000/svg">
<g clip-path="url(#clip0_8_1137)">
<path d="M9 18C13.9706 18 18 13.9706 18 9C18 4.02944 13.9706 0 9 0C4.02944 0 0 4.02944 0 9C0 13.9706 4.02944 18 9 18Z" fill="#3E73C4"/>
<path d="M11.2624 10.1948C11.2624 9.00002 10.5424 8.59052 9.10238 8.41952C8.07413 8.28283 7.86881 8.01002 7.86881 7.53189C7.86881 7.05377 8.21194 6.74664 8.89706 6.74664C9.51413 6.74664 9.85725 6.95139 10.0283 7.46383C10.0461 7.51338 10.0786 7.55628 10.1216 7.58676C10.1645 7.61723 10.2158 7.63381 10.2684 7.63427H10.8169C10.8486 7.63511 10.8801 7.62952 10.9095 7.61782C10.939 7.60612 10.9657 7.58856 10.9882 7.5662C11.0107 7.54385 11.0283 7.51717 11.0402 7.48777C11.052 7.45838 11.0578 7.42689 11.0571 7.39521V7.36146C10.99 6.99071 10.8025 6.65248 10.5234 6.39931C10.2444 6.14613 9.88962 5.99219 9.51413 5.96139V5.14239C9.51413 5.00571 9.41119 4.90333 9.24019 4.86902H8.7255C8.58881 4.86902 8.48588 4.97139 8.45156 5.14239V5.92764C7.42275 6.06377 6.77194 6.74664 6.77194 7.60052C6.77194 8.72664 7.45706 9.17046 8.89706 9.34146C9.85725 9.51189 10.1655 9.71721 10.1655 10.2634C10.1655 10.809 9.68569 11.1848 9.03431 11.1848C8.14275 11.1848 7.8345 10.8096 7.73156 10.2971C7.69781 10.161 7.59431 10.0924 7.49138 10.0924H6.90863C6.877 10.0916 6.84554 10.0973 6.81616 10.109C6.78677 10.1207 6.76008 10.1383 6.73768 10.1607C6.71528 10.183 6.69764 10.2097 6.68584 10.239C6.67404 10.2684 6.66831 10.2998 6.669 10.3315V10.3652C6.80569 11.2191 7.35469 11.8333 8.48588 12.0043V12.8239C8.48588 12.96 8.58881 13.063 8.75981 13.0967H9.2745C9.41119 13.0967 9.51413 12.9943 9.54844 12.8239V12.0038C10.5773 11.8333 11.2624 11.1161 11.2624 10.1942V10.1948Z" fill="white"/>
<path d="M7.25185 13.7796C4.57773 12.8233 3.20635 9.85331 4.20085 7.22475C4.71497 5.79037 5.84616 4.69856 7.25185 4.18612C7.3891 4.11806 7.45716 4.01569 7.45716 3.84469V3.36656C7.45716 3.23044 7.3891 3.12806 7.25185 3.09375C7.21754 3.09375 7.14891 3.09375 7.1146 3.1275C6.34309 3.36843 5.62686 3.7596 5.00715 4.27847C4.38744 4.79735 3.87649 5.43368 3.50371 6.15084C3.13094 6.868 2.90371 7.65181 2.8351 8.45715C2.7665 9.26248 2.85788 10.0734 3.10398 10.8433C3.72048 12.7558 5.19479 14.2239 7.1146 14.8382C7.25185 14.9062 7.3891 14.8382 7.42285 14.7015C7.45716 14.6677 7.45716 14.6329 7.45716 14.5648V14.0867C7.45716 13.9843 7.35479 13.8482 7.25185 13.7796ZM10.8856 3.12806C10.7483 3.05944 10.6111 3.12806 10.5774 3.26419C10.543 3.2985 10.543 3.33281 10.543 3.40088V3.879C10.543 4.01569 10.6454 4.15181 10.7483 4.22044C13.4225 5.17669 14.7938 8.14669 13.7993 10.7753C13.2852 12.2096 12.154 13.3014 10.7483 13.8139C10.6111 13.8819 10.543 13.9843 10.543 14.1553V14.6334C10.543 14.7696 10.6111 14.8719 10.7483 14.9062C10.7827 14.9062 10.8513 14.9063 10.8856 14.8725C11.6571 14.6316 12.3733 14.2404 12.993 13.7215C13.6128 13.2027 14.1237 12.5663 14.4965 11.8492C14.8693 11.132 15.0965 10.3482 15.1651 9.54285C15.2337 8.73752 15.1423 7.92656 14.8962 7.15669C14.2797 5.21044 12.7711 3.74231 10.8856 3.12806Z" fill="white"/>
</g>
<defs>
<clipPath id="clip0_8_1137">
<rect width="18" height="18" fill="white"/>
</clipPath>
</defs>
</svg>
